<?xml version="1.0" encoding="UTF-8" standalone="no"?>
<svg
   width="534.17267"
   height="279.44885"
   viewBox="0 0 534.17267 279.44885"
   version="1.1"
   id="svg1006"
   sodipodi:docname="things-network.svg"
   inkscape:version="1.1.2 (0a00cf5339, 2022-02-04)"
   xmlns:inkscape="http://www.inkscape.org/namespaces/inkscape"
   xmlns:sodipodi="http://sodipodi.sourceforge.net/DTD/sodipodi-0.dtd"
   xmlns="http://www.w3.org/2000/svg"
   xmlns:svg="http://www.w3.org/2000/svg"
   xmlns:rdf="http://www.w3.org/1999/02/22-rdf-syntax-ns#"
   xmlns:cc="http://creativecommons.org/ns#"
   xmlns:dc="http://purl.org/dc/elements/1.1/">
  <defs
     id="defs1010" />
  <sodipodi:namedview
     id="namedview1008"
     pagecolor="#ffffff"
     bordercolor="#666666"
     borderopacity="1.0"
     inkscape:pageshadow="2"
     inkscape:pageopacity="0.0"
     inkscape:pagecheckerboard="0"
     showgrid="false"
     fit-margin-top="0"
     fit-margin-left="0"
     fit-margin-right="0"
     fit-margin-bottom="0"
     inkscape:zoom="0.25013902"
     inkscape:cx="-31.982215"
     inkscape:cy="639.64431"
     inkscape:window-width="1920"
     inkscape:window-height="1015"
     inkscape:window-x="0"
     inkscape:window-y="0"
     inkscape:window-maximized="1"
     inkscape:current-layer="TTS_Community_Edition" />
  <title
     id="title994">TTS_Community_Edition</title>
  <g
     id="Page-1"
     stroke="none"
     stroke-width="1"
     fill="none"
     fill-rule="evenodd"
     transform="translate(6.5579799,175.90327)">
    <g
       id="Artboard"
       transform="translate(-849,-407)">
      <g
         id="TTS_Community_Edition"
         transform="translate(849,407)">
        <g
           id="frames"
           transform="matrix(2.4016151,0,0,2.4016151,-6.5579799,-175.90312)">
          <path
             d="m 72.789382,4.2101599 c 0.08098,0.2394322 0.147413,0.4836328 0.198936,0.7312402 L 73.633,8.0399373 46.543664,17.387891 C 41.616954,19.087799 38.731559,24.210752 39.796,29.326218 L 55.663,105.58294 25.406057,116.0232 c -0.585062,0.20187 -1.179441,0.30969 -1.767014,0.33145 l -0.21999,0.004 c -2.56209,0.002 -4.955358,-1.62485 -5.829747,-4.21022 -0.08098,-0.23944 -0.147413,-0.48364 -0.198937,-0.73124 L 0.1324763,28.479758 C -0.507313,25.405074 1.2239037,22.331338 4.1674886,21.315686 L 64.972631,0.33552948 c 0.585062,-0.20186922 1.17944,-0.30968846 1.767014,-0.33144909 L 66.959635,-6.1459e-5 C 69.521725,-0.00168388 71.914992,1.6247894 72.789382,4.2101599 Z M 74.486,12.140937 90.246211,87.878967 c 0.63979,3.074685 -1.091427,6.148421 -4.035012,7.164073 L 59.623,104.21694 43.863895,28.479758 c -0.63979,-3.074684 1.091427,-6.14842 4.035012,-7.164072 z"
             id="frame4"
             fill="#0047ff" />
          <path
             d="m 116.5208,4.2101599 c 0.081,0.2394322 0.14741,0.4836328 0.19894,0.7312402 l 0.70168,3.3725372 -26.297011,9.0739537 c -4.92671,1.699908 -7.812105,6.822861 -6.747664,11.938327 L 100.18742,105.30994 69.137475,116.0232 c -0.585061,0.20187 -1.17944,0.30969 -1.767014,0.33145 l -0.21999,0.004 c -2.56209,0.002 -4.955357,-1.62485 -5.829747,-4.21022 -0.08098,-0.23944 -0.147413,-0.48364 -0.198936,-0.73124 L 43.863895,28.479758 c -0.63979,-3.074684 1.091427,-6.14842 4.035012,-7.164072 L 108.70405,0.33552948 c 0.58506,-0.20186922 1.17944,-0.30968846 1.76701,-0.33144909 l 0.21999,-0.004141849 c 2.56209,-0.001622421 4.95536,1.624850859 5.82975,4.210221359 z m 1.75362,8.2047771 15.70321,75.46403 c 0.63979,3.074685 -1.09143,6.148421 -4.03501,7.164073 l -25.7952,8.8999 -15.702781,-75.463182 c -0.639789,-3.074684 1.091428,-6.14842 4.035013,-7.164072 z"
             id="frame3"
             fill="#1e5dff" />
          <path
             d="m 161.10154,4.2101599 c 0.081,0.2394322 0.14742,0.4836328 0.19894,0.7312402 l 0.64468,3.0985372 -27.08933,9.3479537 c -4.92671,1.699908 -7.81211,6.822861 -6.74767,11.938327 l 15.867,76.256722 -30.25694,10.44026 c -0.58506,0.20187 -1.17944,0.30969 -1.76701,0.33145 l -0.21999,0.004 c -2.56209,0.002 -4.95536,-1.62485 -5.82975,-4.21022 -0.081,-0.23944 -0.14741,-0.48364 -0.19894,-0.73124 L 88.444639,28.479758 c -0.639789,-3.074684 1.091428,-6.14842 4.035013,-7.164072 L 153.28479,0.33552948 c 0.58507,-0.20186922 1.17944,-0.30968846 1.76702,-0.33144909 L 155.2718,-6.1459e-5 c 2.56209,-0.001622421 4.95535,1.624850859 5.82974,4.210221359 z m 1.69662,7.9307771 15.76021,75.73803 c 0.63979,3.074685 -1.09142,6.148421 -4.03501,7.164073 l -26.5882,9.1739 -15.7591,-75.737182 c -0.63979,-3.074684 1.09142,-6.14842 4.03501,-7.164072 z"
             id="frame2"
             fill="#3d73ff" />
          <path
             d="m 204.83296,4.2101599 c 0.081,0.2394322 0.14742,0.4836328 0.19894,0.7312402 l 17.25789,82.9375669 c 0.63979,3.074685 -1.09143,6.148421 -4.03501,7.164073 l -60.80514,20.98016 c -0.58506,0.20187 -1.17944,0.30969 -1.76702,0.33145 l -0.21999,0.004 c -2.56209,0.002 -4.95535,-1.62485 -5.82974,-4.21022 -0.081,-0.23944 -0.14742,-0.48364 -0.19894,-0.73124 L 132.17606,28.479758 c -0.63979,-3.074684 1.09142,-6.14842 4.03501,-7.164072 L 197.01621,0.33552948 c 0.58506,-0.20186922 1.17944,-0.30968846 1.76702,-0.33144909 l 0.21999,-0.004141849 c 2.56209,-0.001622421 4.95535,1.624850859 5.82974,4.210221359 z"
             id="frame1"
             fill="#6c95ff" />
        </g>
      </g>
    </g>
  </g>
  <metadata
     id="metadata1092">
    <rdf:RDF>
      <cc:Work
         rdf:about="">
        <dc:title>TTS_Community_Edition</dc:title>
      </cc:Work>
    </rdf:RDF>
  </metadata>
</svg>
